<?xml version="1.0" encoding="UTF-8" standalone="no"?>
<svg
   xmlns:dc="http://purl.org/dc/elements/1.1/"
   xmlns:cc="http://creativecommons.org/ns#"
   xmlns:rdf="http://www.w3.org/1999/02/22-rdf-syntax-ns#"
   xmlns:svg="http://www.w3.org/2000/svg"
   xmlns="http://www.w3.org/2000/svg"
   xmlns:sodipodi="http://sodipodi.sourceforge.net/DTD/sodipodi-0.dtd"
   xmlns:inkscape="http://www.inkscape.org/namespaces/inkscape"
   version="1.1"
   id="svg869"
   xml:space="preserve"
   width="793.70135"
   height="1054.488"
   viewBox="0 0 793.70135 1054.488"
   sodipodi:docname="Leung2020.svg"
   inkscape:version="1.0.1 (1.0.1+r74)"><metadata
     id="metadata875"><rdf:RDF><cc:Work
         rdf:about=""><dc:format>image/svg+xml</dc:format><dc:type
           rdf:resource="http://purl.org/dc/dcmitype/StillImage" /><dc:title></dc:title></cc:Work></rdf:RDF></metadata><defs
     id="defs873"><clipPath
       clipPathUnits="userSpaceOnUse"
       id="clipPath887"><path
         d="M 0,790.866 H 595.276 V 0 H 0 Z"
         id="path885" /></clipPath><clipPath
       clipPathUnits="userSpaceOnUse"
       id="clipPath917"><path
         d="M 0,790.866 H 595.276 V 0 H 0 Z"
         id="path915" /></clipPath><clipPath
       clipPathUnits="userSpaceOnUse"
       id="clipPath1223"><path
         d="m 43.554,699.295 h 246.84 v 42.601 H 43.554 Z"
         id="path1221" /></clipPath><clipPath
       clipPathUnits="userSpaceOnUse"
       id="clipPath1237"><path
         d="m 44.454,643.802 h 247.56 v 44.04 H 44.454 Z"
         id="path1235" /></clipPath><clipPath
       clipPathUnits="userSpaceOnUse"
       id="clipPath1251"><path
         d="m 43.554,588.216 h 248.4 v 42.241 h -248.4 z"
         id="path1249" /></clipPath><clipPath
       clipPathUnits="userSpaceOnUse"
       id="clipPath1265"><path
         d="m 43.754,533.865 h 248.279 v 41.76 H 43.754 Z"
         id="path1263" /></clipPath><clipPath
       clipPathUnits="userSpaceOnUse"
       id="clipPath1279"><path
         d="m 42.454,484.573 h 249.48 v 36.36 H 42.454 Z"
         id="path1277" /></clipPath><clipPath
       clipPathUnits="userSpaceOnUse"
       id="clipPath1293"><path
         d="m 42.454,463.077 h 249.58 V 741.896 H 42.454 Z"
         id="path1291" /></clipPath><clipPath
       clipPathUnits="userSpaceOnUse"
       id="clipPath1315"><path
         d="m 42.454,463.077 h 249.58 V 741.896 H 42.454 Z"
         id="path1313" /></clipPath><clipPath
       clipPathUnits="userSpaceOnUse"
       id="clipPath1331"><path
         d="m 42.454,463.077 h 249.58 V 741.896 H 42.454 Z"
         id="path1329" /></clipPath><clipPath
       clipPathUnits="userSpaceOnUse"
       id="clipPath1349"><path
         d="m 42.454,463.077 h 249.58 V 741.896 H 42.454 Z"
         id="path1347" /></clipPath><clipPath
       clipPathUnits="userSpaceOnUse"
       id="clipPath1367"><path
         d="m 42.454,463.077 h 249.58 V 741.896 H 42.454 Z"
         id="path1365" /></clipPath><clipPath
       clipPathUnits="userSpaceOnUse"
       id="clipPath1385"><path
         d="m 42.454,463.077 h 249.58 V 741.896 H 42.454 Z"
         id="path1383" /></clipPath><clipPath
       clipPathUnits="userSpaceOnUse"
       id="clipPath1403"><path
         d="m 42.454,463.077 h 249.58 V 741.896 H 42.454 Z"
         id="path1401" /></clipPath><clipPath
       clipPathUnits="userSpaceOnUse"
       id="clipPath1633"><path
         d="M 307.342,535.595 H 560.533 V 742.267 H 307.342 Z"
         id="path1631" /></clipPath><clipPath
       clipPathUnits="userSpaceOnUse"
       id="clipPath1649"><path
         d="M 307.342,535.595 H 560.533 V 742.267 H 307.342 Z"
         id="path1647" /></clipPath><clipPath
       clipPathUnits="userSpaceOnUse"
       id="clipPath1681"><path
         d="M 307.342,535.595 H 560.533 V 742.267 H 307.342 Z"
         id="path1679" /></clipPath><clipPath
       clipPathUnits="userSpaceOnUse"
       id="clipPath1705"><path
         d="M 307.342,535.595 H 560.533 V 742.267 H 307.342 Z"
         id="path1703" /></clipPath></defs><sodipodi:namedview
     pagecolor="#ffffff"
     bordercolor="#666666"
     borderopacity="1"
     objecttolerance="10"
     gridtolerance="10"
     guidetolerance="10"
     inkscape:pageopacity="0"
     inkscape:pageshadow="2"
     inkscape:window-width="1848"
     inkscape:window-height="1136"
     id="namedview871"
     showgrid="false"
     inkscape:zoom="0.50493831"
     inkscape:cx="260.18994"
     inkscape:cy="573.35858"
     inkscape:window-x="72"
     inkscape:window-y="27"
     inkscape:window-maximized="1"
     inkscape:current-layer="g877" /><g
     id="g877"
     inkscape:groupmode="layer"
     inkscape:label="Leung2020"
     transform="matrix(1.3333333,0,0,-1.3333333,0,1054.488)"><g
       id="g1595"
       transform="matrix(3.956041,0,0,3.956041,-20.662324,739.14428)"
       inkscape:export-xdpi="96"
       inkscape:export-ydpi="96"><path
         d="m 0,0 4.795,-9.587 4.796,2.821 4.795,6.552 4.799,16.422 4.796,-2.797 4.795,4.397 4.795,-1.861 4.796,-1.467 4.795,-14.492 4.796,-14.51 4.795,-10.918 4.799,-15.568 4.796,-8.803 4.795,-14.48 4.796,4.948 4.795,0.574 4.796,-5.791 4.795,-4.468 4.799,-3.449 4.795,4.886 4.796,-6.236 4.795,-9.938 4.796,3.379 4.795,-6.129 4.795,-4.624 4.8,-6.348 4.795,2.614 4.796,-10.332 4.795,-2.045 4.795,-0.757 4.796,-4.3 4.795,-1.139 4.796,10.391 4.799,0.218 4.795,-10.406 4.795,1.116 4.796,3.336 4.795,1.1 4.795,1.253 4.796,1.357 4.799,-5.474 4.796,-6.208 4.795,4.089 4.795,-1.619"
         style="fill:none;stroke:#b22222;stroke-width:1;stroke-linecap:butt;stroke-linejoin:round;stroke-miterlimit:10;stroke-dasharray:none;stroke-opacity:1"
         id="path1597" /></g><g
       id="g1599"
       transform="matrix(3.956041,0,0,3.956041,-20.662324,739.14428)"
       inkscape:export-xdpi="96"
       inkscape:export-ydpi="96"><path
         d="m 0,0 4.795,-9.244 4.796,2.826 4.795,6.492 4.799,16.7 4.796,-2.852 4.795,4.549 4.795,-0.827 4.796,-0.561 4.795,-13.446 4.796,-13.438 4.795,-9.388 4.799,-14.683 4.796,-8.287 4.795,-13.996 4.796,6.66 4.795,1.507 4.796,-5.631 4.795,-3.106 4.799,-3.554 4.795,6.043 4.796,-6.722 4.795,-10.629 4.796,5.494 4.795,-6.743 4.795,-3.671 4.8,-4.082 4.795,2.724 4.796,-10.945 4.795,-1.061 4.795,-1.112 4.796,-4.749 4.795,-1.529 4.796,13.067 4.799,1.592 4.795,-12.201 4.795,2.064 4.796,3.949 4.795,1.444 4.795,1.478 4.796,1.721 4.799,-6.583 4.796,-7.351 4.795,4.893 4.795,-1.935"
         style="fill:none;stroke:#a020f0;stroke-width:1;stroke-linecap:butt;stroke-linejoin:round;stroke-miterlimit:10;stroke-dasharray:none;stroke-opacity:1"
         id="path1601" /></g><g
       id="g1603"
       transform="matrix(3.956041,0,0,3.956041,-20.662324,739.14428)"
       inkscape:export-xdpi="96"
       inkscape:export-ydpi="96"><path
         d="m 0,0 4.795,-9.005 4.796,3 4.795,6.793 4.799,16.942 4.796,-1.553 4.795,4.959 4.795,-0.889 4.796,0.003 4.795,-13.328 4.796,-13.032 4.795,-9.021 4.799,-14.574 4.796,-8.264 4.795,-14.132 4.796,7.062 4.795,1.721 4.796,-5.584 4.795,-3.262 4.799,-4.416 4.795,7.589 4.796,-6.973 4.795,-10.832 4.796,5.865 4.795,-6.825 4.795,-3.554 4.8,-3.492 4.795,4.05 4.796,-9.981 4.795,-0.394 4.795,-0.694 4.796,-4.277 4.795,-1.557 4.796,14.308 4.799,2.88 4.795,-12.576 4.795,4.109 4.796,4.908 4.795,2.396 4.795,4.479 4.796,1.975 4.799,-7.472 4.796,-8.432 4.795,5.622 4.795,-2.224"
         style="fill:none;stroke:#000000;stroke-width:1;stroke-linecap:butt;stroke-linejoin:round;stroke-miterlimit:10;stroke-dasharray:none;stroke-opacity:1"
         id="path1605" /></g><g
       id="g1607"
       transform="matrix(3.956041,0,0,3.956041,-20.662324,739.14428)"
       inkscape:export-xdpi="96"
       inkscape:export-ydpi="96"><path
         d="m 0,0 4.795,-8.701 4.796,3.894 4.795,8.619 4.799,18.261 4.796,-0.125 4.795,8.537 4.795,-0.92 4.796,3.086 4.795,-12.205 4.796,-14.383 4.795,-5.602 4.799,-12.588 4.796,-8.088 4.795,-6.583 4.796,11.76 4.795,5.584 4.796,-4.96 4.795,-2.672 4.799,-2.615 4.795,11.581 4.796,-5.466 4.795,-9.958 4.796,9.236 4.795,-4.292 4.795,-1.135 4.8,-0.972 4.795,9.634 4.796,-10.59 4.795,2.727 4.795,1.643 4.796,-2.938 4.795,0.371 4.796,24.238 4.799,6.024 4.795,-19.08 4.795,8.842 4.796,7.382 4.795,7.964 4.795,8.806 4.796,3.243 4.799,-12.197 4.796,-13.766 4.795,9.181 4.795,-3.632"
         style="fill:none;stroke:#eedd82;stroke-width:1;stroke-linecap:butt;stroke-linejoin:round;stroke-miterlimit:10;stroke-dasharray:none;stroke-opacity:1"
         id="path1609" /></g><g
       id="g1611"
       transform="matrix(3.956041,0,0,3.956041,-62.401725,739.14428)"
       inkscape:export-xdpi="96"
       inkscape:export-ydpi="96"><path
         d="M 0,0 H 224.121"
         style="fill:none;stroke:#000000;stroke-width:1;stroke-linecap:butt;stroke-linejoin:round;stroke-miterlimit:10;stroke-dasharray:6.66, 6.66;stroke-dashoffset:0;stroke-opacity:1"
         id="path1613" /></g><g
       id="g1615"
       transform="matrix(3.956041,0,0,3.956041,-62.401725,247.66434)"
       inkscape:export-xdpi="96"
       inkscape:export-ydpi="96"><path
         d="M 0,0 V 164.358"
         style="fill:none;stroke:#000000;stroke-width:0.5;stroke-linecap:butt;stroke-linejoin:round;stroke-miterlimit:10;stroke-dasharray:none;stroke-opacity:1"
         id="path1617" /></g><text
       transform="scale(1,-1)"
       style="font-variant:normal;font-weight:normal;font-stretch:normal;font-size:27.6923px;font-family:'FPHIF O +Helvetica Neue LT Std';-inkscape-font-specification:HelveticaNeueLTStd-Roman;writing-mode:lr-tb;fill:#000000;fill-opacity:1;fill-rule:nonzero;stroke:none;stroke-width:3.95604"
       id="text1625"
       x="-115.59383"
       y="-396.2211"
       inkscape:export-xdpi="96"
       inkscape:export-ydpi="96"><tspan
         x="-115.59383 -100.19705 -92.498421"
         y="-396.2211"
         sodipodi:role="line"
         id="tspan1619"
         style="stroke-width:3.95604">0.6</tspan><tspan
         x="-115.59383 -100.19705 -92.498421"
         y="-563.81488"
         sodipodi:role="line"
         id="tspan1621"
         style="stroke-width:3.95604">0.8</tspan><tspan
         x="-115.59383 -100.19705 -92.498421"
         y="-731.38086"
         sodipodi:role="line"
         id="tspan1623"
         style="stroke-width:3.95604">1.0</tspan></text><g
       id="g1627"
       transform="matrix(3.956041,0,0,3.956041,-1376.6429,-1955.4307)"
       inkscape:export-xdpi="96"
       inkscape:export-ydpi="96"><g
         id="g1629"
         clip-path="url(#clipPath1633)"><g
           id="g1635"
           transform="translate(330.1419,596.4078)"><path
             d="M 0,0 H 2.069 M 0,42.359 H 2.069 M 0,84.721 h 2.069 m 0,-124.235 H 230.391 M 12.62,-41.583 v 2.069 m 47.958,-2.069 v 2.069 m 47.961,-2.069 v 2.069 m 47.958,-2.069 v 2.069 m 47.958,-2.069 v 2.069"
             style="fill:none;stroke:#000000;stroke-width:0.5;stroke-linecap:butt;stroke-linejoin:round;stroke-miterlimit:10;stroke-dasharray:none;stroke-opacity:1"
             id="path1637" /></g></g></g><text
       transform="scale(1,-1)"
       style="font-variant:normal;font-weight:normal;font-stretch:normal;font-size:27.6923px;font-family:'FPHIF O +Helvetica Neue LT Std';-inkscape-font-specification:HelveticaNeueLTStd-Roman;writing-mode:lr-tb;fill:#000000;fill-opacity:1;fill-rule:nonzero;stroke:none;stroke-width:3.95604"
       id="text1641"
       x="-52.212189"
       y="-211.4819"
       inkscape:export-xdpi="96"
       inkscape:export-ydpi="96"><tspan
         x="-52.212189 -36.815159 -21.418375 -6.0213509 137.53532 152.93234 168.32913 183.72615 327.25531 342.65207 358.0491 373.44589 516.97504 532.37207 547.76886 563.16583 706.72266 722.11969 737.51648 752.91351"
         y="-211.4819"
         sodipodi:role="line"
         id="tspan1639"
         style="stroke-width:3.95604">19701980199020002010</tspan></text><text
       xml:space="preserve"
       style="font-style:normal;font-weight:normal;font-size:40.1067px;line-height:1.25;font-family:sans-serif;fill:#000000;fill-opacity:1;stroke:none;stroke-width:1.00267"
       x="286.24725"
       y="-131.13831"
       id="text2300"
       transform="scale(1,-1)"
       inkscape:export-xdpi="96"
       inkscape:export-ydpi="96"><tspan
         sodipodi:role="line"
         id="tspan2298"
         x="286.24725"
         y="-131.13831"
         style="stroke-width:1.00267">Années</tspan></text><text
       xml:space="preserve"
       style="font-style:normal;font-weight:normal;font-size:40.1067px;line-height:1.25;font-family:sans-serif;fill:#000000;fill-opacity:1;stroke:none;stroke-width:1.00267"
       x="513.43878"
       y="-189.63597"
       id="text2304"
       transform="matrix(0,1,1,0,0,0)"
       inkscape:export-xdpi="96"
       inkscape:export-ydpi="96"><tspan
         sodipodi:role="line"
         id="tspan2302"
         x="513.43878"
         y="-189.63597"
         style="stroke-width:1.00267">Indice</tspan></text><rect
       style="fill:#ffffff;stroke-width:7.57923;stroke-dasharray:22.7377, 7.57923"
       id="rect2330"
       width="854.341"
       height="35.017849"
       x="-63.173328"
       y="-236.48183"
       transform="scale(1,-1)"
       inkscape:export-xdpi="96"
       inkscape:export-ydpi="96" /><g
       id="g2338"
       transform="matrix(1.3368899,0,0,1.3368899,72.764209,-4.7580691)"
       inkscape:export-xdpi="96"
       inkscape:export-ydpi="96"><g
         id="g2354"><text
           xml:space="preserve"
           style="font-style:normal;font-weight:normal;font-size:30px;line-height:1.25;font-family:sans-serif;fill:#000000;fill-opacity:1;stroke:none;stroke-width:0.75"
           x="-107.60858"
           y="-152.26167"
           id="text2308"
           transform="scale(1,-1)"><tspan
             sodipodi:role="line"
             id="tspan2306"
             x="-107.60858"
             y="-152.26167"
             style="stroke-width:0.75">1970</tspan></text><text
           xml:space="preserve"
           style="font-style:normal;font-weight:normal;font-size:30px;line-height:1.25;font-family:sans-serif;fill:#000000;fill-opacity:1;stroke:none;stroke-width:0.75"
           x="33.954521"
           y="-152.26167"
           id="text2312"
           transform="scale(1,-1)"><tspan
             sodipodi:role="line"
             id="tspan2310"
             x="33.954521"
             y="-152.26167"
             style="stroke-width:0.75">1980</tspan></text><text
           xml:space="preserve"
           style="font-style:normal;font-weight:normal;font-size:30px;line-height:1.25;font-family:sans-serif;fill:#000000;fill-opacity:1;stroke:none;stroke-width:0.75"
           x="175.51762"
           y="-152.26169"
           id="text2316"
           transform="scale(1,-1)"><tspan
             sodipodi:role="line"
             id="tspan2314"
             x="175.51762"
             y="-152.26169"
             style="stroke-width:0.75">1990</tspan></text><text
           xml:space="preserve"
           style="font-style:normal;font-weight:normal;font-size:30px;line-height:1.25;font-family:sans-serif;fill:#000000;fill-opacity:1;stroke:none;stroke-width:0.75"
           x="317.63007"
           y="-152.26169"
           id="text2320"
           transform="scale(1,-1)"><tspan
             sodipodi:role="line"
             id="tspan2318"
             x="317.63007"
             y="-152.26169"
             style="stroke-width:0.75">2000</tspan></text><text
           xml:space="preserve"
           style="font-style:normal;font-weight:normal;font-size:30px;line-height:1.25;font-family:sans-serif;fill:#000000;fill-opacity:1;stroke:none;stroke-width:0.75"
           x="459.19315"
           y="-152.26169"
           id="text2324"
           transform="scale(1,-1)"><tspan
             sodipodi:role="line"
             id="tspan2322"
             x="459.19315"
             y="-152.26169"
             style="stroke-width:0.75">2010</tspan></text></g></g><rect
       style="fill:#ffffff;stroke-width:7.57923;stroke-dasharray:22.7377, 7.57923"
       id="rect2376"
       width="47.115463"
       height="405.00171"
       x="-122.37236"
       y="-765.98169"
       transform="scale(1,-1)"
       inkscape:export-xdpi="96"
       inkscape:export-ydpi="96" /><g
       id="g2374"
       transform="matrix(1.3368899,0,0,1.3368899,115.12647,-46.060767)"
       inkscape:export-xdpi="96"
       inkscape:export-ydpi="96"><text
         xml:space="preserve"
         style="font-style:normal;font-weight:normal;font-size:30px;line-height:1.25;font-family:sans-serif;fill:#000000;fill-opacity:1;stroke:none;stroke-width:0.75"
         x="-190.80569"
         y="-578.4809"
         id="text2358"
         transform="scale(1,-1)"><tspan
           sodipodi:role="line"
           id="tspan2356"
           x="-190.80569"
           y="-578.4809"
           style="stroke-width:0.75">1.0</tspan></text><text
         xml:space="preserve"
         style="font-style:normal;font-weight:normal;font-size:30px;line-height:1.25;font-family:sans-serif;fill:#000000;fill-opacity:1;stroke:none;stroke-width:0.75"
         x="-190.7471"
         y="-453.35699"
         id="text2362"
         transform="scale(1,-1)"><tspan
           sodipodi:role="line"
           id="tspan2360"
           x="-190.7471"
           y="-453.35699"
           style="stroke-width:0.75">0.8</tspan></text><text
         xml:space="preserve"
         style="font-style:normal;font-weight:normal;font-size:30px;line-height:1.25;font-family:sans-serif;fill:#000000;fill-opacity:1;stroke:none;stroke-width:0.75"
         x="-190.90823"
         y="-328.23306"
         id="text2366"
         transform="scale(1,-1)"><tspan
           sodipodi:role="line"
           id="tspan2364"
           x="-190.90823"
           y="-328.23306"
           style="stroke-width:0.75">0.6</tspan></text></g><g
       id="g2444"
       transform="matrix(1.3368899,0,0,1.3368899,-16.467641,-43.987842)"
       inkscape:export-xdpi="96"
       inkscape:export-ydpi="96"><g
         id="g1667"
         transform="matrix(11.795986,0,0,2.9591375,335.19449,761.4949)"><path
           d="M 0.09198044,0.22584508 H 5.4849804"
           style="fill:none;stroke:#000000;stroke-width:1;stroke-linecap:butt;stroke-linejoin:round;stroke-miterlimit:10;stroke-dasharray:none;stroke-opacity:1"
           id="path1669" /></g><g
         id="g1671"
         transform="matrix(11.795986,0,0,2.9591375,336.27949,726.74045)"><path
           d="M 0,0 H 5.393"
           style="fill:none;stroke:#eedd82;stroke-width:1;stroke-linecap:butt;stroke-linejoin:round;stroke-miterlimit:10;stroke-dasharray:none;stroke-opacity:1"
           id="path1673" /></g><g
         id="g1659"
         transform="matrix(11.79592,0,0,2.9591375,-89.823541,760.36739)"><path
           d="M 0,0.6330343 H 5.393"
           style="fill:none;stroke:#b22222;stroke-width:1;stroke-linecap:butt;stroke-linejoin:round;stroke-miterlimit:10;stroke-dasharray:none;stroke-opacity:1"
           id="path1661" /></g><g
         id="g1663"
         transform="matrix(11.795986,0,0,2.9591375,-89.823541,729.98977)"><path
           d="M 0,-1.0979504 H 5.393"
           style="fill:none;stroke:#a020f0;stroke-width:1;stroke-linecap:butt;stroke-linejoin:round;stroke-miterlimit:10;stroke-dasharray:none;stroke-opacity:1"
           id="path1665" /></g><text
         xml:space="preserve"
         style="font-style:normal;font-weight:normal;font-size:24px;line-height:1.25;font-family:sans-serif;fill:#000000;fill-opacity:1;stroke:none;stroke-width:0.75"
         x="-6.2845235"
         y="-756.29956"
         id="text2396"
         transform="scale(1,-1)"><tspan
           sodipodi:role="line"
           id="tspan2394"
           x="-6.2845235"
           y="-756.29956"
           style="font-size:24px;stroke-width:0.75">Toutes pop (14500)</tspan></text><text
         xml:space="preserve"
         style="font-style:normal;font-weight:normal;font-size:24px;line-height:1.25;font-family:sans-serif;fill:#000000;fill-opacity:1;stroke:none;stroke-width:0.75"
         x="-8.9915543"
         y="-719.63922"
         id="text2400"
         transform="scale(1,-1)"><tspan
           sodipodi:role="line"
           id="tspan2398"
           x="-8.9915543"
           y="-719.63922"
           style="font-size:24px;stroke-width:0.75">120 populations retirées</tspan></text><text
         xml:space="preserve"
         style="font-style:normal;font-weight:normal;font-size:24px;line-height:1.25;font-family:sans-serif;fill:#000000;fill-opacity:1;stroke:none;stroke-width:0.75"
         x="420.55722"
         y="-755.31543"
         id="text2404"
         transform="scale(1,-1)"><tspan
           sodipodi:role="line"
           id="tspan2402"
           x="420.55722"
           y="-755.31543"
           style="font-size:24px;stroke-width:0.75">238 populations retirées</tspan></text><text
         xml:space="preserve"
         style="font-style:normal;font-weight:normal;font-size:24px;line-height:1.25;font-family:sans-serif;fill:#000000;fill-opacity:1;stroke:none;stroke-width:0.75"
         x="420.48691"
         y="-719.63947"
         id="text2408"
         transform="scale(1,-1)"><tspan
           sodipodi:role="line"
           id="tspan2406"
           x="420.48691"
           y="-719.63947"
           style="font-size:24px;stroke-width:0.75">356 populations retirées</tspan></text></g></g></svg>
